<svg xmlns="http://www.w3.org/2000/svg" width="155" height="155" viewBox="0 0 155 155" version="1.1"><path d="" stroke="none" fill="#080404" fill-rule="evenodd"/><path d="M 63 9.481 C 59.425 10.281, 51.775 13.262, 46 16.103 C 36.936 20.563, 34.336 22.448, 26.992 29.885 C 11.068 46.009, 4.127 65.863, 6.997 87.079 C 9.228 103.579, 14.914 115.527, 26 127.011 C 39.291 140.780, 52.878 146.758, 73.076 147.724 C 87.688 148.424, 96.620 146.590, 109.141 140.322 C 116.137 136.820, 119.877 134.090, 125.829 128.139 C 134.707 119.262, 139.058 112.366, 143.092 100.777 C 145.695 93.299, 145.973 91.245, 145.972 79.500 C 145.970 64.655, 144.460 56.712, 139.866 47.380 C 131.312 30.005, 113.005 15.576, 93.057 10.488 C 83.925 8.159, 70.856 7.721, 63 9.481 M 68.500 12.976 C 59.642 14.070, 54.364 15.738, 46 20.088 C 25.125 30.944, 12.027 51.247, 10.423 75.234 C 9.631 87.081, 11.506 96.251, 17.097 107.866 C 20.505 114.947, 22.806 118.041, 29.892 125.071 C 44.601 139.662, 60.242 145.758, 80.365 144.739 C 97.909 143.851, 110.039 138.419, 122.990 125.652 C 131.008 117.748, 136.119 110.448, 139.770 101.686 C 141.971 96.403, 142.411 93.593, 142.784 82.440 C 143.298 67.076, 142.210 60.681, 137.476 51.237 C 124.457 25.267, 96.145 9.562, 68.500 12.976 M 61.487 31.799 C 53.761 34.470, 48.026 38.242, 41.866 44.700 C 31.648 55.415, 27.481 66.781, 28.212 81.950 C 28.609 90.192, 29.138 92.503, 32.006 98.514 C 37.707 110.464, 49.146 120.750, 61.438 124.979 C 78.871 130.977, 96.300 127.129, 109.537 114.359 C 115.720 108.395, 120.085 102.091, 122.596 95.500 C 124.115 91.512, 124.500 87.865, 124.500 77.477 C 124.500 64.673, 124.442 64.337, 121.075 57.477 C 114.837 44.769, 102.949 35.045, 89.307 31.492 C 81.507 29.460, 67.813 29.611, 61.487 31.799 M 68.500 45.882 C 59.190 48.334, 50.390 55.802, 46.149 64.852 C 42.364 72.927, 42.373 84.092, 46.171 92.196 C 49.258 98.784, 55.916 105.856, 62.155 109.172 C 65.855 111.140, 67.983 111.484, 76.500 111.491 C 85.183 111.499, 87.139 111.173, 91.355 109.020 C 98.127 105.561, 106.368 96.384, 108.616 89.796 C 114.236 73.335, 105.513 54.077, 89.770 48.187 C 83.416 45.810, 73.043 44.685, 68.500 45.882 M 70.500 63.412 C 61.958 67.208, 58.682 77.298, 62.943 86.684 C 67.808 97.399, 84.595 97.289, 90.788 86.500 C 92.593 83.355, 93.003 81.369, 92.706 77.209 C 92.245 70.752, 89.906 67.278, 83.980 64.250 C 79.013 61.712, 74.899 61.456, 70.500 63.412" stroke="none" fill="#040404" fill-rule="evenodd"/></svg>