<?xml version="1.0" standalone="no"?>
<!DOCTYPE svg PUBLIC "-//W3C//DTD SVG 20010904//EN"
 "http://www.w3.org/TR/2001/REC-SVG-20010904/DTD/svg10.dtd">
<svg version="1.0" xmlns="http://www.w3.org/2000/svg"
 width="542.000000pt" height="137.000000pt" viewBox="0 0 542.000000 137.000000"
 preserveAspectRatio="xMidYMid meet">

<g transform="translate(0.000000,137.000000) scale(0.100000,-0.100000)"
fill="#000000" stroke="none">
<path d="M525 1228 c-73 -13 -204 -80 -264 -134 -134 -121 -202 -288 -187
-464 12 -144 72 -267 177 -364 99 -92 195 -132 339 -142 118 -8 199 7 298 57
143 72 243 197 287 357 21 74 16 235 -9 315 -82 258 -369 426 -641 375z m235
-34 c184 -43 358 -214 399 -394 14 -60 14 -205 0 -255 -26 -94 -72 -170 -148
-246 -111 -111 -226 -159 -381 -159 -142 0 -268 53 -375 157 -61 59 -93 110
-131 208 -22 57 -27 87 -27 165 -1 151 52 280 159 385 134 133 317 183 504
139z"/>
<path d="M551 1060 c-214 -45 -357 -282 -295 -490 68 -229 332 -350 540 -249
73 35 157 119 190 191 26 57 29 73 29 168 0 99 -2 109 -33 173 -40 80 -121
154 -204 185 -64 24 -167 34 -227 22z m195 -139 c62 -28 99 -63 129 -122 57
-111 39 -226 -48 -314 -65 -64 -132 -90 -217 -82 -74 6 -127 34 -182 95 -130
146 -70 368 119 438 50 19 137 12 199 -15z"/>
<path d="M584 796 c-50 -22 -74 -61 -74 -120 0 -80 46 -126 125 -126 96 0 155
102 111 189 -29 55 -106 82 -162 57z"/>
<path d="M1337 1233 c-4 -3 -7 -255 -7 -559 0 -531 3 -585 28 -559 9 8 15
1048 7 1093 -6 31 -15 39 -28 25z"/>
<path d="M2976 1194 c-92 -29 -165 -93 -196 -172 -19 -49 -8 -151 25 -217 39
-80 59 -90 180 -90 90 0 105 3 153 28 68 36 128 97 155 156 45 101 14 256 -58
290 -44 22 -198 24 -259 5z m61 -90 c54 -41 87 -116 87 -199 1 -68 -21 -135
-43 -135 -23 0 -76 59 -98 107 -26 61 -31 163 -11 220 14 40 21 41 65 7z"/>
<path d="M1565 1170 c-8 -27 -8 -314 0 -383 l7 -57 99 0 99 0 0 74 c0 110 20
128 121 112 45 -8 46 -7 67 28 l21 36 -37 2 c-68 4 -113 -2 -138 -19 -25 -16
-25 -16 -19 8 3 13 11 53 18 89 l13 65 51 3 c43 2 54 0 66 -18 8 -12 12 -30
10 -41 -5 -18 -1 -20 43 -17 l49 3 12 50 c21 94 44 85 -231 85 -234 0 -245 -1
-251 -20z"/>
<path d="M2136 1083 c-6 -97 4 -265 20 -329 6 -23 9 -24 104 -24 l98 0 -6 85
c-4 65 -2 85 8 85 23 0 76 -67 92 -116 l15 -49 118 -3 117 -3 -7 38 c-3 21
-17 62 -30 91 -22 48 -26 52 -59 52 -19 0 -59 5 -88 12 l-53 11 70 22 c108 33
115 38 115 90 0 24 -5 67 -11 95 l-11 50 -243 0 -242 0 -7 -107z m295 -37 c9
-20 9 -33 2 -45 -11 -18 -59 -38 -69 -28 -4 3 -3 41 1 84 l7 78 24 -30 c13
-16 29 -43 35 -59z"/>
<path d="M3401 1140 c-18 -83 -16 -90 24 -90 29 0 43 8 74 40 35 37 42 40 89
40 29 0 52 -3 52 -6 0 -3 -33 -49 -73 -103 -65 -86 -187 -273 -187 -286 0 -3
117 -5 260 -5 l260 0 10 26 c6 15 14 44 19 65 l9 39 -54 0 c-48 0 -54 -3 -66
-27 -16 -35 -69 -54 -123 -47 -22 3 -43 9 -47 13 -9 8 135 224 199 300 27 31
54 64 62 74 13 16 0 17 -242 17 l-255 0 -11 -50z"/>
<path d="M4015 1092 c-7 -88 -1 -238 12 -324 l6 -38 224 0 224 0 14 33 c7 17
15 46 17 62 3 29 2 30 -44 33 -43 3 -48 1 -62 -26 -18 -35 -54 -52 -111 -52
-58 0 -75 17 -68 72 10 76 52 101 129 79 36 -10 46 -6 63 27 16 30 12 34 -47
40 -34 3 -60 -1 -86 -13 -20 -10 -39 -15 -42 -13 -8 9 26 152 39 161 15 10 96
2 109 -11 6 -6 11 -22 11 -37 0 -32 14 -39 58 -28 31 8 34 13 45 66 6 32 8 60
3 63 -5 3 -116 4 -248 3 l-239 -2 -7 -95z"/>
<path d="M4620 1181 c0 -6 12 -32 26 -58 26 -47 26 -50 22 -220 l-5 -173 43 0
c42 0 43 1 50 36 4 21 4 77 1 125 -8 106 -2 110 63 43 56 -57 149 -131 219
-173 41 -25 62 -31 95 -29 l41 3 0 225 0 225 -45 0 c-39 0 -45 -3 -43 -20 1
-11 7 -63 12 -115 6 -54 6 -99 2 -103 -11 -11 -172 141 -213 201 l-29 42 -119
0 c-69 0 -120 -4 -120 -9z"/>
<path d="M3585 634 c-140 -36 -217 -122 -216 -241 0 -92 44 -173 123 -225 39
-26 47 -28 147 -28 111 1 248 13 258 24 4 4 9 58 11 121 l5 115 -97 0 -97 0 7
-101 c7 -98 6 -101 -12 -91 -68 37 -116 134 -118 236 -2 104 6 122 53 130 21
3 53 3 69 0 28 -6 30 -9 25 -36 l-6 -29 59 3 58 3 15 48 c11 35 12 50 3 59
-12 12 -249 22 -287 12z"/>
<path d="M1512 556 c-18 -96 -18 -96 28 -96 34 0 42 4 50 25 11 29 57 75 75
75 9 0 14 -37 19 -122 4 -68 12 -158 18 -200 l11 -78 98 0 98 0 0 142 c0 123
12 252 24 264 2 2 18 -1 34 -7 31 -10 57 -52 51 -80 -2 -10 8 -14 41 -14 41 0
45 2 56 35 7 20 16 55 20 78 l7 42 -309 0 -310 0 -11 -64z"/>
<path d="M2284 587 l26 -34 -24 -31 c-33 -45 -92 -91 -152 -118 -59 -26 -64
-38 -64 -165 l0 -79 113 0 112 0 65 57 65 56 9 -56 8 -57 104 0 104 0 0 53 c0
79 -28 232 -58 322 l-27 80 -153 3 -153 3 25 -34z m76 -124 c7 -16 21 -52 31
-81 l18 -52 -53 -40 c-29 -22 -56 -40 -61 -40 -4 0 -5 26 -1 57 8 67 37 183
46 183 4 0 13 -12 20 -27z"/>
<path d="M2745 610 c-11 -18 -7 -314 5 -382 l12 -68 99 0 99 0 -6 85 c-6 71
-5 85 8 85 30 0 87 -79 102 -143 l6 -27 116 0 117 0 -7 41 c-4 23 -16 63 -27
90 l-21 48 -66 7 c-123 13 -125 17 -26 49 l89 30 0 70 c0 39 -4 82 -8 98 l-7
27 -240 0 c-148 0 -241 -4 -245 -10z m254 -72 c8 -13 23 -40 34 -61 18 -37 18
-39 0 -52 -20 -15 -63 -28 -70 -22 -6 7 9 157 16 157 3 0 13 -10 20 -22z"/>
<path d="M4035 533 c-8 -89 -1 -280 11 -340 l7 -33 226 0 227 0 12 45 c21 80
19 85 -38 85 -35 0 -50 -4 -50 -13 0 -42 -93 -77 -155 -59 -29 8 -30 11 -27
57 1 27 9 60 18 73 15 23 20 24 84 18 69 -7 69 -7 84 22 14 27 14 31 0 36 -30
11 -105 6 -135 -10 -17 -8 -33 -13 -36 -10 -11 10 28 154 43 160 57 22 128
-11 117 -53 -5 -19 -1 -21 40 -21 45 0 46 1 56 38 6 20 11 49 11 65 l0 27
-244 0 -244 0 -7 -87z"/>
<path d="M4637 613 c-3 -5 -11 -37 -18 -71 -10 -54 -10 -65 2 -73 25 -16 58
-10 70 14 18 35 61 77 79 77 15 0 18 -18 24 -132 4 -73 12 -163 18 -201 l11
-67 96 0 97 0 -4 100 c-5 106 14 296 30 306 28 17 88 -38 88 -81 0 -20 59 -30
75 -14 14 16 45 135 37 144 -8 8 -600 6 -605 -2z"/>
</g>
</svg>
